<!--?xml version="1.0" standalone="no"?-->
              <svg id="sw-js-blob-svg" viewBox="0 0 100 100" xmlns="http://www.w3.org/2000/svg" version="1.1">
                    <defs> 
                        <linearGradient id="sw-gradient" x1="0" x2="1" y1="1" y2="0">
                            <stop id="stop1" stop-color="rgba(255, 116, 106, 1)" offset="0%"></stop>
                            <stop id="stop2" stop-color="rgba(251, 168, 31, 1)" offset="100%"></stop>
                        </linearGradient>
                    </defs>
                <path fill="rgba(255, 116, 106, 1)" d="M13.7,-21.7C19.5,-17.6,27.2,-16.8,31.7,-12.8C36.1,-8.8,37.4,-1.6,34.6,3.7C31.9,9,25.1,12.5,20.5,17.5C15.8,22.6,13.2,29.3,8,33.9C2.8,38.6,-5,41.1,-11.3,39C-17.5,36.9,-22.1,30,-25.2,23.5C-28.2,16.9,-29.7,10.7,-30.7,4.4C-31.6,-2,-32.1,-8.4,-30.2,-14.3C-28.3,-20.2,-24.1,-25.6,-18.7,-30C-13.3,-34.3,-6.6,-37.5,-1.3,-35.4C3.9,-33.3,7.9,-25.9,13.7,-21.7Z" width="100%" height="100%" transform="translate(50 50)" stroke-width="0" style="transition: all 0.3s ease 0s;"></path>
              </svg>